<?xml version="1.0" standalone="no"?>
<!DOCTYPE svg PUBLIC "-//W3C//DTD SVG 20010904//EN"
 "http://www.w3.org/TR/2001/REC-SVG-20010904/DTD/svg10.dtd">
<svg version="1.0" xmlns="http://www.w3.org/2000/svg"
 width="460.000000pt" height="460.000000pt" viewBox="0 0 460.000000 460.000000"
 preserveAspectRatio="xMidYMid meet">

<g transform="translate(0.000000,460.000000) scale(0.100000,-0.100000)"
fill="#FFFFFF" stroke="none">
<path d="M2205 3838 c-49 -28 -108 -61 -130 -73 -22 -12 -87 -49 -145 -82
-110 -63 -362 -206 -393 -223 -9 -6 -92 -54 -185 -107 -92 -53 -180 -104 -197
-113 -73 -41 -124 -70 -185 -105 -36 -21 -92 -53 -125 -71 l-60 -32 0 -543 c0
-533 0 -544 20 -554 11 -5 98 -54 193 -108 l172 -99 0 -87 c0 -54 -5 -92 -12
-99 -14 -14 -53 -16 -78 -2 -15 8 -20 4 -30 -21 -11 -26 -11 -32 1 -40 24 -15
132 -11 156 6 27 19 43 72 43 143 0 49 1 52 19 43 15 -8 30 -5 65 15 l46 26 0
-46 c0 -78 40 -150 102 -182 32 -17 150 -19 181 -3 51 27 87 73 101 132 6 26
5 27 -34 27 -29 0 -40 -4 -40 -15 0 -43 -63 -95 -115 -95 -34 0 -80 24 -99 52
-24 33 -21 129 4 160 58 75 180 53 210 -37 10 -31 15 -35 47 -35 34 0 34 1 28
33 -14 65 -49 108 -110 140 -28 14 -28 16 -10 23 11 4 79 41 150 82 72 42 165
95 208 119 43 24 96 55 117 68 22 14 43 25 47 25 5 0 33 16 63 35 30 19 61 35
69 35 13 0 185 -94 446 -245 151 -87 188 -109 230 -131 l40 -22 3 -178 c1 -98
6 -182 11 -187 5 -5 54 -6 110 -2 l101 8 0 28 0 29 -70 0 -70 0 0 45 0 44 63
3 c62 3 62 3 62 33 0 30 0 30 -62 33 l-63 3 0 45 0 46 48 -28 c26 -15 75 -42
108 -61 l61 -33 59 30 59 29 5 -127 5 -127 35 0 35 0 3 147 3 148 149 72 149
73 -2 564 -2 563 -210 120 c-115 66 -230 131 -255 146 -25 14 -74 42 -110 62
-36 20 -94 53 -128 73 -35 21 -66 37 -69 37 -2 0 -24 14 -48 30 -24 17 -46 30
-49 30 -3 0 -65 34 -138 76 -73 42 -151 87 -173 98 -39 22 -127 72 -256 147
-36 22 -69 39 -75 39 -5 0 -49 -23 -99 -52z"/>
<path d="M1877 1843 c-4 -3 -7 -88 -7 -189 0 -137 3 -183 13 -186 6 -2 48 -3
92 -2 83 2 105 13 92 48 -5 12 -20 16 -67 16 l-60 0 0 160 0 160 -28 0 c-16 0
-32 -3 -35 -7z"/>
<path d="M2180 1709 c0 -206 23 -243 150 -243 127 0 150 37 150 243 l0 141
-40 0 -40 0 0 -145 c0 -132 -2 -147 -20 -165 -23 -23 -68 -26 -96 -6 -17 13
-19 30 -22 165 l-3 151 -40 0 -39 0 0 -141z"/>
<path d="M2615 1840 c-3 -5 -3 -21 1 -35 6 -24 9 -25 90 -25 46 0 84 -2 84 -5
0 -6 -121 -174 -157 -219 -16 -20 -23 -39 -21 -60 l3 -31 135 1 135 1 3 32 3
31 -96 0 -95 0 17 28 c10 15 38 54 63 87 81 108 100 140 100 173 l0 32 -129 0
c-72 0 -132 -4 -136 -10z"/>
</g>
</svg>
